<?xml version="1.0" standalone="no"?>
<!DOCTYPE svg PUBLIC "-//W3C//DTD SVG 20010904//EN"
 "http://www.w3.org/TR/2001/REC-SVG-20010904/DTD/svg10.dtd">
<svg version="1.0" xmlns="http://www.w3.org/2000/svg"
 width="970.000000pt" height="545.000000pt" viewBox="0 0 970.000000 545.000000"
 preserveAspectRatio="xMidYMid meet">
<metadata>
Created by potrace 1.16, written by Peter Selinger 2001-2019
</metadata>
<g transform="translate(0.000000,545.000000) scale(0.100000,-0.100000)"
fill="#000000" stroke="none">
<path d="M6570 4093 c245 -251 160 -531 -217 -722 -134 -67 -272 -115 -488
-170 -54 -13 -346 -57 -470 -71 -124 -13 -661 -13 -770 -1 -44 6 -129 15 -190
21 -284 29 -517 80 -799 176 -54 19 -106 34 -115 34 -39 0 213 -109 379 -163
119 -38 138 -44 305 -85 22 -6 94 -20 160 -32 66 -12 126 -24 133 -26 16 -5
15 -24 -3 -68 l-15 -36 -66 0 c-63 0 -65 1 -59 23 l6 22 -17 -22 c-14 -20 -25
-23 -91 -23 -67 0 -74 2 -82 22 l-8 22 -5 -22 c-6 -20 -13 -22 -81 -22 l-75 0
5 43 5 42 -24 -40 -24 -40 -108 -3 -109 -3 6 68 c3 37 9 78 13 91 9 31 -10 28
-27 -5 -7 -16 -26 -47 -41 -70 -15 -23 -28 -46 -28 -52 0 -6 -4 -11 -10 -11
-5 0 -10 -5 -10 -11 0 -6 -14 -30 -30 -54 -17 -24 -30 -46 -30 -50 0 -4 -13
-25 -29 -48 -33 -49 -111 -177 -111 -183 0 -8 2679 -4 2683 4 5 7 -14 73 -33
120 -18 40 -28 66 -40 102 -7 19 -16 44 -20 55 -59 150 -61 162 -27 170 12 3
69 17 127 31 58 14 117 28 133 31 15 3 30 9 33 14 3 5 16 9 29 9 13 0 27 5 30
10 3 6 14 10 23 10 26 0 233 103 303 151 167 113 242 249 219 395 -15 93 -48
152 -138 243 -69 71 -231 191 -257 191 -6 0 19 -30 55 -67z"/>
<path d="M2945 2202 c-28 -9 -67 -30 -88 -46 -109 -83 -207 -302 -207 -461 1
-128 71 -225 163 -225 94 0 200 109 247 253 8 24 21 42 36 47 15 6 24 18 24
31 0 20 -3 21 -97 15 -136 -9 -163 -14 -163 -31 0 -12 16 -15 76 -15 l76 0 -7
-37 c-16 -90 -109 -213 -171 -229 -109 -28 -138 156 -61 391 62 189 165 306
247 280 45 -14 38 -125 -12 -174 l-31 -31 23 -20 c28 -25 42 -25 63 -2 66 73
60 219 -12 256 -37 20 -44 20 -106 -2z"/>
<path d="M5482 2199 c-98 -17 -162 -63 -162 -120 0 -31 22 -52 72 -70 36 -12
38 -12 63 16 l25 30 -38 10 c-66 19 -52 64 27 92 47 16 213 17 229 1 23 -23
12 -73 -37 -163 l-48 -90 -114 -14 c-110 -14 -129 -21 -129 -50 0 -10 9 -12
38 -6 67 12 142 17 158 11 12 -5 9 -17 -20 -69 -64 -115 -115 -284 -89 -300 5
-3 25 0 46 6 35 11 37 14 37 56 0 54 30 148 81 256 23 47 27 50 68 55 47 5 71
30 29 30 -56 1 -56 12 0 125 62 126 66 157 20 185 -27 16 -50 20 -118 19 -47
-1 -109 -5 -138 -10z"/>
<path d="M3697 2172 c-39 -43 -99 -217 -132 -386 -3 -15 -29 -53 -57 -83 -40
-42 -57 -53 -77 -51 -16 2 -27 10 -30 22 -3 20 12 102 30 161 8 23 6 32 -6 41
-8 6 -15 21 -15 33 0 26 -34 41 -75 33 -37 -7 -124 -93 -150 -147 -25 -54 -30
-134 -10 -160 24 -30 89 -23 137 15 40 32 58 32 58 0 0 -11 8 -24 18 -29 31
-17 73 0 120 50 47 50 62 54 62 15 0 -13 11 -35 25 -51 22 -23 31 -26 62 -20
45 8 72 26 104 67 27 37 58 97 59 115 0 16 33 33 64 33 15 0 35 5 46 12 40 25
33 -7 -22 -113 -32 -60 -53 -109 -48 -109 5 0 45 52 87 115 l77 116 40 -3 c54
-4 56 -22 12 -98 -56 -95 -42 -150 37 -150 30 0 46 9 95 55 65 60 82 67 82 32
0 -41 27 -67 69 -67 32 0 48 8 89 45 27 25 53 45 56 45 3 0 12 -16 20 -35 16
-37 67 -75 103 -75 36 0 115 39 166 82 27 22 51 37 54 34 3 -3 1 -25 -6 -47
-10 -34 -10 -43 1 -50 19 -13 38 -11 42 4 2 6 18 66 36 132 18 66 36 134 41
150 41 137 68 250 60 258 -5 5 -21 7 -37 5 -24 -2 -30 -8 -32 -33 -5 -47 -73
-317 -87 -345 -16 -31 -55 -67 -119 -110 -57 -39 -113 -45 -145 -16 -36 33
-27 57 40 100 123 79 154 182 55 178 -59 -2 -117 -50 -160 -132 -14 -26 -46
-67 -72 -93 -117 -113 -158 -75 -98 93 35 101 36 116 4 112 -30 -5 -37 -16
-66 -102 -18 -53 -33 -75 -78 -117 -57 -53 -93 -70 -121 -59 -25 9 -17 46 20
98 61 84 54 142 -16 143 -33 0 -34 2 -39 44 -7 59 -30 74 -65 41 -14 -13 -30
-40 -35 -61 -11 -41 -18 -45 -90 -55 -46 -6 -50 -5 -61 20 -16 33 -58 36 -78
4 -12 -19 -11 -24 8 -39 26 -22 26 -38 0 -94 -39 -84 -104 -122 -129 -76 -18
34 -11 99 15 151 62 123 119 292 113 340 -4 31 -29 37 -51 12z m-337 -284 c0
-6 7 -16 15 -22 24 -17 -7 -121 -47 -163 -49 -51 -108 -44 -108 12 0 35 44
127 76 159 33 33 64 39 64 14z"/>
<path d="M6147 2163 c-4 -3 -7 -22 -7 -42 0 -46 -66 -298 -86 -329 -23 -35
-101 -106 -139 -126 -28 -16 -37 -17 -50 -6 -8 7 -15 20 -15 30 0 16 44 160
65 213 11 27 -51 24 -65 -4 -21 -38 -40 -129 -40 -188 0 -68 18 -91 72 -91 29
0 47 10 97 55 34 30 63 55 65 55 3 0 -2 -22 -9 -49 -12 -45 -11 -51 5 -66 22
-20 35 -6 49 50 5 22 19 74 30 115 55 197 64 230 81 299 11 41 17 78 14 83 -6
10 -58 11 -67 1z"/>
<path d="M7016 1942 c-39 -5 -113 -82 -151 -157 -32 -65 -111 -135 -152 -135
-25 0 -39 15 -22 26 20 12 69 128 69 162 0 35 -15 71 -34 84 -17 12 -68 -2
-99 -28 -31 -26 -47 -24 -47 7 0 17 -6 20 -32 17 -30 -3 -33 -5 -30 -35 2 -17
-4 -46 -13 -63 -22 -42 -129 -145 -168 -161 -26 -11 -31 -10 -44 7 -16 22 -12
45 28 164 16 47 29 86 29 87 0 2 -14 3 -30 3 -34 0 -40 -11 -66 -108 -18 -70
-18 -142 2 -170 11 -16 25 -22 54 -22 33 0 47 8 100 56 33 31 63 54 66 51 6
-6 -7 -61 -47 -207 -62 -224 -63 -245 -15 -238 17 3 23 17 38 93 10 50 23 110
28 135 6 25 13 60 16 78 8 41 20 49 43 28 20 -18 76 -21 87 -5 3 6 19 9 35 5
47 -9 86 4 133 45 24 22 48 39 53 39 5 0 17 -15 25 -34 17 -34 65 -66 99 -66
56 0 181 81 238 154 48 61 28 55 -44 -12 -36 -34 -80 -69 -97 -78 -43 -22
-103 -21 -128 1 -33 30 -25 57 28 90 68 43 119 92 126 121 14 54 -10 74 -78
66z m-318 -74 c27 -27 6 -101 -47 -168 -18 -23 -22 -24 -53 -12 -19 6 -42 12
-51 12 -20 0 -20 3 -7 50 15 54 92 130 130 130 9 0 21 -5 28 -12z"/>
<path d="M3708 1033 c-10 -2 -18 -14 -18 -25 0 -21 4 -21 98 -2 24 5 32 3 32
-8 0 -7 -26 -118 -58 -246 -32 -127 -55 -236 -52 -243 14 -22 49 9 55 49 21
125 40 209 75 332 12 41 24 85 27 97 4 19 13 22 66 25 37 2 62 8 65 16 3 9
-28 12 -135 11 -76 -1 -146 -3 -155 -6z"/>
<path d="M5065 1008 c-2 -7 -14 -57 -26 -111 -22 -98 -35 -121 -76 -144 -35
-20 -50 -15 -56 17 -14 65 -93 95 -135 50 -18 -19 -24 -31 -54 -97 -17 -37
-77 -93 -100 -93 -22 0 -23 16 -2 86 29 102 5 143 -63 109 -21 -11 -41 -21
-45 -23 -5 -2 -8 4 -8 13 0 34 -33 9 -51 -39 -20 -53 -67 -109 -111 -132 -36
-19 -92 -18 -108 1 -17 21 -14 88 5 125 13 25 63 70 79 70 11 0 6 -36 -6 -48
-9 -9 -9 -15 1 -24 10 -11 16 -8 32 11 24 30 21 52 -10 67 -47 24 -120 -27
-146 -102 -26 -79 -146 -141 -189 -98 -26 26 -19 43 33 74 27 17 57 42 66 56
44 68 -23 101 -90 43 -46 -41 -65 -78 -65 -127 0 -94 85 -117 179 -49 l50 36
21 -34 c36 -59 109 -59 178 1 22 18 43 34 47 34 4 0 4 -16 1 -35 -5 -27 -4
-35 8 -35 19 0 31 23 40 73 9 48 69 117 102 117 29 0 30 -12 7 -102 -16 -63
-16 -69 -1 -84 22 -23 56 -12 104 31 l39 36 13 -31 c23 -56 93 -61 137 -8 14
16 25 35 25 41 0 12 83 67 100 67 13 0 13 -5 -5 -70 -19 -69 -19 -70 3 -70 14
0 21 13 31 53 7 28 17 66 22 82 30 100 69 245 69 259 0 19 -39 22 -45 4z"/>
<path d="M5422 806 c-79 -73 -122 -84 -122 -31 0 59 -87 88 -131 44 -30 -30
-49 -82 -49 -131 1 -56 19 -80 63 -81 44 -1 85 26 102 67 11 26 65 66 90 66 3
0 5 -21 5 -47 0 -27 7 -56 14 -65 16 -22 79 -24 96 -3 15 19 30 19 30 2 0 -7
-30 -40 -66 -72 -37 -32 -72 -72 -79 -88 -25 -61 18 -152 68 -145 34 5 58 62
88 206 13 60 16 65 71 105 32 23 58 45 58 50 0 4 7 7 15 7 9 0 15 -9 15 -23 0
-28 29 -57 56 -57 11 0 36 13 55 30 37 30 49 30 49 -1 0 -33 61 -39 100 -9 32
25 47 25 55 0 12 -38 58 -26 104 27 54 63 53 78 -2 19 -24 -25 -50 -46 -59
-46 -30 0 -30 25 -2 143 4 16 2 27 -4 27 -6 0 -12 10 -14 23 -2 16 -11 23 -34
25 -40 4 -79 -28 -130 -106 -58 -90 -134 -131 -142 -76 -2 11 8 52 22 90 16
43 22 72 16 78 -13 13 -50 -22 -50 -46 0 -11 -5 -29 -12 -41 -23 -43 -121
-117 -132 -99 -2 4 6 47 19 94 12 48 20 89 17 93 -3 3 -15 -4 -27 -15 l-22
-21 -17 26 c-25 38 -59 32 -114 -19z m114 -31 c7 -22 11 -50 8 -62 -8 -31 -60
-73 -90 -73 -47 0 -54 81 -13 149 16 27 25 32 50 29 26 -3 33 -9 45 -43z"/>
</g>
</svg>
